<?xml version="1.0" encoding="UTF-8"?>
<svg version="1.1" xmlns="http://www.w3.org/2000/svg" width="980" height="980">
<path d="M0 0 C323.4 0 646.8 0 980 0 C980 323.4 980 646.8 980 980 C656.6 980 333.2 980 0 980 C0 656.6 0 333.2 0 0 Z " fill="#000000" transform="translate(0,0)"/>
<path d="M0 0 C1.12858121 3.38574363 0.92119761 3.90061037 -0.30078125 7.0859375 C-0.61329834 7.91891357 -0.92581543 8.75188965 -1.24780273 9.61010742 C-1.59915283 10.52252197 -1.95050293 11.43493652 -2.3125 12.375 C-3.0621625 14.37805939 -3.8094395 16.38201273 -4.5546875 18.38671875 C-4.95397461 19.45841309 -5.35326172 20.53010742 -5.76464844 21.63427734 C-7.90206669 27.45768605 -9.92128847 33.32122839 -11.9375 39.1875 C-12.56712646 41.01837158 -12.56712646 41.01837158 -13.20947266 42.88623047 C-17.88411203 56.52343006 -22.42694401 70.20422745 -26.95654297 83.89013672 C-31.68667538 98.17650034 -36.56906998 112.40247502 -41.6328125 126.57421875 C-43.82774799 132.72767031 -46.00089404 138.86434034 -47.875 145.125 C-51.43242061 156.94862616 -55.72787379 168.54785918 -59.828125 180.19140625 C-64.01286393 192.0867841 -68.03630348 204.02933336 -72 216 C-73.68500555 221.0841642 -75.3721178 226.16762083 -77.0625 231.25 C-77.2785791 231.899758 -77.4946582 232.54951599 -77.71728516 233.21896362 C-80.41017464 241.30989778 -83.15033294 249.38028563 -86.01708984 257.41137695 C-89.07206052 265.97475228 -92.03197379 274.57810307 -94.5625 283.3125 C-95.76580969 287.41592123 -97.29595947 291.31615512 -98.92236328 295.26806641 C-99.95412013 297.88368923 -100.87104835 300.50528801 -101.75 303.17578125 C-102.09732178 304.22701172 -102.44464355 305.27824219 -102.80249023 306.36132812 C-103.39525757 308.1624707 -103.39525757 308.1624707 -104 310 C-105.75097696 315.30175039 -107.50640273 320.60202449 -109.26391602 325.90161133 C-109.7991545 327.51747193 -110.3333232 329.13368726 -110.86645508 330.75024414 C-111.64898854 333.12221656 -112.4354536 335.49285495 -113.22265625 337.86328125 C-113.45710953 338.57696365 -113.69156281 339.29064606 -113.93312073 340.0259552 C-115.41158757 344.46233914 -117.12986287 348.71429653 -119 353 C-119.63566845 354.96927491 -120.24021645 356.94887998 -120.8125 358.9375 C-122.58848805 364.90813687 -124.71470245 370.68043435 -127.06958008 376.44311523 C-128.66592458 380.50051224 -129.11425881 383.67378055 -129 388 C-125.06514764 389.44481798 -121.12665996 390.87947227 -117.1875 392.3125 C-115.53717773 392.91868164 -115.53717773 392.91868164 -113.85351562 393.53710938 C-108.70695204 395.40444661 -103.60111885 397.163966 -98.30078125 398.54296875 C-93.86964176 399.69743418 -89.75141227 401.24107002 -85.52734375 402.99609375 C-81.10233099 404.75378815 -76.54955442 406.10454843 -72 407.5 C-65.64176779 409.45021408 -59.44195318 411.55844671 -53.28662109 414.08056641 C-50.17014948 415.33367681 -47.00491777 416.39500425 -43.8125 417.4375 C-42.68457031 417.80746094 -41.55664062 418.17742187 -40.39453125 418.55859375 C-39.74186279 418.77193359 -39.08919434 418.98527344 -38.41674805 419.20507812 C-34.64923993 420.44429486 -30.88792989 421.70206043 -27.12579346 422.95747375 C-22.99101396 424.33696474 -18.85508606 425.71292973 -14.71800232 427.085495 C-11.88127279 428.02677092 -9.0449927 428.9693971 -6.20874023 429.91210938 C-4.76555489 430.39147477 -3.32219237 430.87030708 -1.87866211 431.34863281 C12.99149847 436.27700984 12.99149847 436.27700984 20 439 C19.19203056 442.62487944 17.86126866 444.97987034 15.75 448.0625 C15.03070312 449.11824219 14.31140625 450.17398437 13.5703125 451.26171875 C13.16458008 451.85130371 12.75884766 452.44088867 12.34082031 453.04833984 C10.862534 455.20009162 9.39572298 457.35941535 7.9296875 459.51953125 C2.57923736 467.38878161 -2.82824575 475.20678883 -8.39526367 482.92431641 C-11.82786488 487.70576417 -15.10538622 492.58289076 -18.33862305 497.50097656 C-21.19509387 501.83729104 -24.15620656 506.09253734 -27.1418457 510.34082031 C-30.3033074 514.86514574 -33.39867506 519.43433813 -36.5 524 C-40.75734021 530.26750704 -45.04264427 536.51196684 -49.39648438 542.71289062 C-51.61637942 545.87914775 -53.81137924 549.06207608 -56 552.25 C-56.45729492 552.91563965 -56.91458984 553.5812793 -57.38574219 554.26708984 C-61.35180407 560.04534501 -65.30217375 565.83427595 -69.25 571.625 C-69.87849854 572.54676025 -70.50699707 573.46852051 -71.15454102 574.41821289 C-74.44495953 579.24568821 -77.73117487 584.07596468 -81.01171875 588.91015625 C-86.56137874 597.08088854 -92.10261596 605.23229171 -97.98046875 613.171875 C-101.30070384 617.82148855 -104.41800549 622.60631568 -107.56787109 627.37231445 C-110.9831531 632.52343605 -114.53769482 637.5395086 -118.21484375 642.5078125 C-120.03894249 645.0543661 -121.71566418 647.6560227 -123.375 650.3125 C-126.41075407 655.16146465 -129.67797442 659.81441311 -133.02246094 664.4519043 C-140.21109321 674.43296051 -147.10241893 684.61843017 -153.90234375 694.8671875 C-156.42795502 698.63914325 -158.99051319 702.38456624 -161.5625 706.125 C-162.21508789 707.07439453 -162.21508789 707.07439453 -162.88085938 708.04296875 C-165.36584592 711.65008782 -167.87004243 715.2430417 -170.38671875 718.828125 C-174.05457697 724.06222005 -177.65702513 729.33932636 -181.25 734.625 C-185.822473 741.34081972 -190.39819912 748.0542319 -195 754.75 C-195.61149902 755.64066162 -195.61149902 755.64066162 -196.23535156 756.54931641 C-198.59210618 759.9753216 -200.97019516 763.385583 -203.359375 766.7890625 C-207.03634228 772.03619418 -210.64811 777.32615658 -214.25 782.625 C-220.04082323 791.1310759 -225.85254 799.62218402 -231.68945312 808.09667969 C-233.50007658 810.72626621 -235.30867007 813.35724601 -237.1171875 815.98828125 C-238.48936361 817.98452616 -239.86186796 819.98054512 -241.234375 821.9765625 C-243.12095501 824.7205569 -245.00620146 827.46546175 -246.890625 830.2109375 C-247.36951172 830.90832031 -247.84839844 831.60570312 -248.34179688 832.32421875 C-249.23929807 833.63125932 -250.13646886 834.93852688 -251.03320312 836.24609375 C-253.46159368 839.78171029 -255.91050517 843.30193951 -258.375 846.8125 C-262.04706224 852.05161431 -265.65339646 857.33390639 -269.25 862.625 C-273.69525615 869.15489401 -278.1452206 875.68123312 -282.625 882.1875 C-288.19509366 890.27808688 -293.74126628 898.38493981 -299.28564453 906.49316406 C-302.29377531 910.89183777 -305.30322189 915.28961118 -308.3125 919.6875 C-309.412766 921.2955691 -310.51302695 922.90364165 -311.61328125 924.51171875 C-312.40885417 925.67447917 -313.20442708 926.83723958 -314 928 C-315 926 -315 926 -314.21923828 923.16943359 C-313.79884277 921.96625488 -313.37844727 920.76307617 -312.9453125 919.5234375 C-312.47395552 918.15603762 -312.00294194 916.78851932 -311.53222656 915.42089844 C-311.28106079 914.69882202 -311.02989502 913.97674561 -310.77111816 913.23278809 C-309.47903388 909.49153216 -308.23842953 905.73328198 -306.9921875 901.9765625 C-306.47550547 900.42569959 -305.95857657 898.8749189 -305.44140625 897.32421875 C-305.18375488 896.55126465 -304.92610352 895.77831055 -304.66064453 894.98193359 C-303.8688151 892.60644531 -303.07698568 890.23095703 -302.28515625 887.85546875 C-302.02780197 887.08332031 -301.77044769 886.31117188 -301.5052948 885.515625 C-301.00315313 884.00937069 -300.50080881 882.50318391 -299.99824524 880.99707031 C-298.99953099 878.00347504 -298.00306138 875.00930039 -297.01635742 872.01171875 C-295.77890242 868.25405778 -294.40628779 864.65531851 -292.8046875 861.03881836 C-291.77961572 858.44161737 -290.99085021 855.80307487 -290.1875 853.12890625 C-288.0496037 846.10963509 -285.76482558 839.14592875 -283.4375 832.1875 C-282.85838867 830.44436523 -282.85838867 830.44436523 -282.26757812 828.66601562 C-279.13139472 819.26815088 -279.13139472 819.26815088 -277.41015625 814.73828125 C-275.8215628 810.52696842 -274.40114543 806.27641263 -273 802 C-272.5015408 800.47866097 -272.00154983 798.95782292 -271.5 797.4375 C-271.2834375 796.77621094 -271.066875 796.11492188 -270.84375 795.43359375 C-270.121467 793.35034233 -269.3613969 791.29030368 -268.58203125 789.22802734 C-267.0437221 785.14755095 -265.60183703 781.03891241 -264.1875 776.9140625 C-263.93250732 776.17223724 -263.67751465 775.43041199 -263.41479492 774.66610718 C-262.87978253 773.10833597 -262.34536578 771.55036007 -261.81152344 769.9921875 C-261.00419724 767.63724323 -260.19360424 765.2834405 -259.3828125 762.9296875 C-256.97748634 755.92604988 -254.58456784 748.9412388 -252.59179688 741.8059082 C-252 740 -252 740 -250.5 737.5625 C-249.06038648 735.10316024 -248.49729377 733.34109992 -247.8125 730.60546875 C-245.64964235 722.46070758 -242.99549953 714.47433552 -240.38427734 706.46484375 C-239.49791021 703.74358407 -238.61787337 701.02033106 -237.73828125 698.296875 C-237.16965028 696.54675167 -236.60065261 694.79674743 -236.03125 693.046875 C-235.77178589 692.24256042 -235.51232178 691.43824585 -235.24499512 690.60955811 C-233.71945814 685.94936789 -231.97471004 681.48781977 -230 677 C-229.13908182 674.57210573 -228.30607654 672.13414899 -227.5 669.6875 C-227.28351807 669.03305908 -227.06703613 668.37861816 -226.84399414 667.7043457 C-225.64283663 664.04964536 -224.50741248 660.3824983 -223.4375 656.6875 C-222.51378794 653.53151276 -221.43218433 650.52526753 -220.1640625 647.4921875 C-217.7695185 641.57114318 -215.84564076 635.52957944 -213.9375 629.4375 C-213.25961155 627.29020763 -212.58123453 625.14306943 -211.90234375 622.99609375 C-211.57862793 621.97112793 -211.25491211 620.94616211 -210.92138672 619.89013672 C-209.88131761 616.62772598 -208.80909507 613.37756866 -207.71679688 610.13232422 C-207.22463279 608.66823665 -206.73794087 607.20230164 -206.25585938 605.73486328 C-204.84449084 601.44485281 -203.3519027 597.20054701 -201.75488281 592.97631836 C-198.19045172 583.5403707 -194.93605365 574.0062103 -191.75 564.4375 C-191.53576385 563.79551666 -191.32152771 563.15353333 -191.10079956 562.49209595 C-188.61338874 555.02890896 -186.19981154 547.5533449 -184 540 C-185.3300708 539.57702637 -185.3300708 539.57702637 -186.68701172 539.14550781 C-190.02405994 538.08235429 -193.36001274 537.01588604 -196.6953125 535.94726562 C-198.13011824 535.48828207 -199.56533007 535.03056573 -201.00097656 534.57421875 C-208.27898894 532.25987172 -215.46871362 529.88275809 -222.52807617 526.95410156 C-226.49982889 525.42110308 -230.57627571 524.25114863 -234.65185547 523.02734375 C-240.17326662 521.33315547 -245.61167241 519.40689912 -251.0625 517.5 C-262.55132843 513.50483891 -274.07733213 509.63398282 -285.625 505.8125 C-295.85396125 502.42675836 -306.04013775 498.98480201 -316.12084961 495.17480469 C-322.33398527 492.83480216 -328.62029432 490.84404419 -335 489 C-333.31027195 483.75128223 -330.12033358 479.53984902 -327 475.0625 C-326.41766602 474.21929199 -325.83533203 473.37608398 -325.23535156 472.50732422 C-320.99503765 466.38384624 -316.68239465 460.31398679 -312.3359375 454.265625 C-306.43522868 446.04099007 -300.75809294 437.66608837 -295.1640625 429.23046875 C-292.18064903 424.77688944 -289.13712508 420.36561605 -286.08666992 415.95776367 C-283.88261597 412.76641696 -281.70153949 409.56586701 -279.58984375 406.3125 C-278.52443359 404.6728125 -278.52443359 404.6728125 -277.4375 403 C-276.81746094 402.030625 -276.19742188 401.06125 -275.55859375 400.0625 C-275.04425781 399.381875 -274.52992188 398.70125 -274 398 C-273.34 398 -272.68 398 -272 398 C-271.74089844 397.28457031 -271.48179687 396.56914062 -271.21484375 395.83203125 C-269.93058419 392.83817858 -268.39438826 390.38010915 -266.5625 387.6875 C-265.84578125 386.63046875 -265.1290625 385.5734375 -264.390625 384.484375 C-263.59438836 383.32247894 -262.79749156 382.16103507 -262 381 C-261.59072266 380.40251953 -261.18144531 379.80503906 -260.75976562 379.18945312 C-258.50135864 375.89349317 -256.23692791 372.60174241 -253.96875 369.3125 C-251.437302 365.63955026 -248.92024232 361.95696172 -246.40600586 358.2722168 C-238.34560309 346.46255973 -230.17446649 334.73086063 -222 323 C-215.54503393 313.73560742 -209.21394184 304.39925414 -203.00390625 294.96875 C-199.07059915 289.01895213 -195.01795424 283.19655916 -190.76171875 277.47265625 C-188.94656226 275.00445442 -188.94656226 275.00445442 -187.39453125 272.24609375 C-186 270 -186 270 -184 269 C-183.21826311 267.71737446 -182.49706704 266.39750763 -181.80859375 265.0625 C-178.94202433 259.75162605 -175.56768922 254.90500106 -172.0625 250 C-168.14713456 244.48540079 -164.27207922 238.95767541 -160.53881836 233.31787109 C-152.96659835 221.91208706 -145.22915453 210.60738974 -137.22241211 199.50219727 C-134.52917242 195.76225243 -131.94188007 191.96766439 -129.41015625 188.1171875 C-127.89449366 185.84159437 -126.32772831 183.60797974 -124.75 181.375 C-121.89262019 177.31352782 -119.11959329 173.20064473 -116.375 169.0625 C-108.4732373 157.16242089 -100.44911064 145.34730301 -92.08764648 133.76489258 C-85.52645316 124.61666245 -79.29610957 115.23343821 -72.97998047 105.91552734 C-69.10568479 100.21061502 -65.19266563 94.5324488 -61.27832031 88.85498047 C-59.01593351 85.57201353 -56.75830186 82.28577757 -54.5 79 C-53.58335403 77.66665244 -52.66668741 76.33331907 -51.75 75 C-51.069375 74.01 -51.069375 74.01 -50.375 73 C-46.25 67 -46.25 67 -44.87548828 65.00073242 C-43.95716639 63.66497667 -43.0388722 62.32920188 -42.12060547 60.9934082 C-39.85448843 57.69698255 -37.58791941 54.40086973 -35.3203125 51.10546875 C-30.41270659 43.97240359 -25.51372755 36.83351893 -20.625 29.6875 C-20.08987793 28.90544189 -19.55475586 28.12338379 -19.00341797 27.31762695 C-16.10606587 23.08227056 -13.21165234 18.84493199 -10.3203125 14.60546875 C-9.7226709 13.72995361 -9.1250293 12.85443848 -8.50927734 11.95239258 C-7.35506232 10.26143393 -6.2017123 8.56988446 -5.04931641 6.87768555 C-4.27467041 5.74327026 -4.27467041 5.74327026 -3.484375 4.5859375 C-3.02772461 3.9161084 -2.57107422 3.2462793 -2.10058594 2.55615234 C-1 1 -1 1 0 0 Z " fill="#FDFDFD" transform="translate(647,26)"/>
<path d="M0 0 C1.4216868 4.26506039 -0.34613318 7.20037743 -1.9375 11.1875 C-2.22818359 11.93708984 -2.51886719 12.68667969 -2.81835938 13.45898438 C-3.53725036 15.30924477 -4.26754653 17.15506648 -5 19 C-6.98 18.34 -8.96 17.68 -11 17 C-9.24933204 13.11390189 -6.81675994 9.72187742 -4.375 6.25 C-3.95476563 5.64800781 -3.53453125 5.04601562 -3.1015625 4.42578125 C-2.07006863 2.94886957 -1.03535421 1.47420806 0 0 Z " fill="#E3E3E3" transform="translate(647,26)"/>
<path d="M0 0 C1.32 0 2.64 0 4 0 C4.66 0.66 5.32 1.32 6 2 C2.7 6.95 -0.6 11.9 -4 17 C-5 15 -5 15 -4.00390625 11.5234375 C-3.53099953 10.13802064 -3.05018356 8.75528453 -2.5625 7.375 C-2.31951172 6.66859375 -2.07652344 5.9621875 -1.82617188 5.234375 C-1.22412795 3.48726713 -0.61291983 1.74332214 0 0 Z " fill="#EDEDED" transform="translate(337,937)"/>
<path d="M0 0 C1.231394 3.69418201 0.64432764 6.2056261 0 10 C-2.31 10.33 -4.62 10.66 -7 11 C-4.69 7.37 -2.38 3.74 0 0 Z " fill="#0E0E0E" transform="translate(398,858)"/>
<path d="M0 0 C0.33 0.99 0.66 1.98 1 3 C0.01 4.485 0.01 4.485 -1 6 C-1.33 6.99 -1.66 7.98 -2 9 C-2.61875 9.598125 -3.2375 10.19625 -3.875 10.8125 C-6.30940716 13.31850737 -7.56190837 15.83619841 -9 19 C-9.66 18.67 -10.32 18.34 -11 18 C-9.41138932 14.64008841 -7.5072351 11.5631733 -5.5 8.4375 C-4.8915625 7.48746094 -4.283125 6.53742187 -3.65625 5.55859375 C-2.45109559 3.69685758 -1.23019182 1.84528773 0 0 Z " fill="#353535" transform="translate(601,562)"/>
<path d="M0 0 C0.5 2 0.5 2 1 4 C1.23589844 4.66515625 1.47179687 5.3303125 1.71484375 6.015625 C2 8 2 8 1.00390625 9.921875 C0.52824219 10.52515625 0.05257813 11.1284375 -0.4375 11.75 C-1.14712891 12.67039062 -1.14712891 12.67039062 -1.87109375 13.609375 C-2.24363281 14.06828125 -2.61617188 14.5271875 -3 15 C-4.57156655 11.8568669 -3.11705576 9.634536 -2.0625 6.375 C-1.68222656 5.18648437 -1.30195313 3.99796875 -0.91015625 2.7734375 C-0.60980469 1.85820313 -0.30945313 0.94296875 0 0 Z " fill="#C1C1C1" transform="translate(336,939)"/>
<path d="M0 0 C1 3 1 3 1 6 C0.38125 6.268125 -0.2375 6.53625 -0.875 6.8125 C-3.2995233 7.95556848 -3.2995233 7.95556848 -5 11 C-5.66 10.67 -6.32 10.34 -7 10 C-3.535 5.05 -3.535 5.05 0 0 Z " fill="#252525" transform="translate(550,637)"/>
<path d="M0 0 C0.66 1.32 1.32 2.64 2 4 C-1 7 -4 10 -7 13 C-7 9.16235973 -5.73464665 7.88513915 -3.5 4.8125 C-2.8503125 3.91144531 -2.200625 3.01039063 -1.53125 2.08203125 C-1.0259375 1.39496094 -0.520625 0.70789063 0 0 Z " fill="#333333" transform="translate(637,510)"/>
<path d="M0 0 C0.66 1.32 1.32 2.64 2 4 C0.88625 4.86625 0.88625 4.86625 -0.25 5.75 C-2.66087643 7.72253526 -4.84042701 9.76044282 -7 12 C-5.44298069 7.32894208 -2.91552627 3.91294315 0 0 Z " fill="#2C2C2C" transform="translate(435,804)"/>
<path d="M0 0 C0.93423645 3.01031744 1.04449911 3.86650268 0 7 C-1.9375 9.1875 -1.9375 9.1875 -4 11 C-4.66 11 -5.32 11 -6 11 C-4.54955729 6.89041233 -2.48889248 3.56741255 0 0 Z " fill="#C6C6C6" transform="translate(318,504)"/>
<path d="M0 0 C0.99 0.33 1.98 0.66 3 1 C0.525 4.465 0.525 4.465 -2 8 C-2.99 7.34 -3.98 6.68 -5 6 C-3.74821404 3.49642808 -2.00018842 1.93566621 0 0 Z " fill="#171717" transform="translate(614,70)"/>
<path d="M0 0 C0.66 0.99 1.32 1.98 2 3 C1.5875 3.391875 1.175 3.78375 0.75 4.1875 C-1.32884913 6.34059374 -3.15468957 8.64563841 -5 11 C-5.33 10.34 -5.66 9.68 -6 9 C-4.02 6.03 -2.04 3.06 0 0 Z " fill="#222222" transform="translate(409,842)"/>
<path d="M0 0 C0.66 0.99 1.32 1.98 2 3 C1.3125 4.9375 1.3125 4.9375 0 7 C-2.625 7.75 -2.625 7.75 -5 8 C-3.35 5.36 -1.7 2.72 0 0 Z " fill="#1D1D1D" transform="translate(484,733)"/>
<path d="M0 0 C0.33 0.66 0.66 1.32 1 2 C-1.12081604 6.32018082 -2.79664822 9.44796499 -7 12 C-5.44298069 7.32894208 -2.91552627 3.91294315 0 0 Z " fill="#CFCFCF" transform="translate(475,276)"/>
<path d="M0 0 C1.13643966 3.40931897 0.86747764 4.00335456 -0.4375 7.1875 C-0.72496094 7.90292969 -1.01242187 8.61835937 -1.30859375 9.35546875 C-1.53675781 9.89816406 -1.76492188 10.44085938 -2 11 C-2.33 10.01 -2.66 9.02 -3 8 C-3.66 7.67 -4.32 7.34 -5 7 C-3.35 4.69 -1.7 2.38 0 0 Z " fill="#C6C6C6" transform="translate(647,26)"/>
<path d="M0 0 C0.66 0.66 1.32 1.32 2 2 C1.875 4.5 1.875 4.5 1 7 C-1.0625 8.3125 -1.0625 8.3125 -3 9 C-3.33 8.01 -3.66 7.02 -4 6 C-2.0625 2.8125 -2.0625 2.8125 0 0 Z " fill="#1D1D1D" transform="translate(514,689)"/>
<path d="M0 0 C0.5775 0.20625 1.155 0.4125 1.75 0.625 C1.09 0.625 0.43 0.625 -0.25 0.625 C-0.25 1.285 -0.25 1.945 -0.25 2.625 C0.74 2.295 1.73 1.965 2.75 1.625 C3.08 2.615 3.41 3.605 3.75 4.625 C0.45 3.635 -2.85 2.645 -6.25 1.625 C-2.25 -0.375 -2.25 -0.375 0 0 Z " fill="#3A3A3A" transform="translate(538.25,418.375)"/>
<path d="M0 0 C1 3 1 3 0 6 C-1.29355827 7.37195574 -2.62298702 8.71182656 -4 10 C-4.66 9.67 -5.32 9.34 -6 9 C-4.02 6.03 -2.04 3.06 0 0 Z " fill="#353535" transform="translate(619,536)"/>
<path d="M0 0 C1.04449911 3.13349732 0.93423645 3.98968256 0 7 C-1.65 7.33 -3.3 7.66 -5 8 C-3.62845496 5.04590299 -2.01136276 2.55991624 0 0 Z " fill="#D2D2D2" transform="translate(522,208)"/>
<path d="M0 0 C1 3 1 3 0 6 C-1.95597184 7.39712274 -3.95436401 8.73779907 -6 10 C-4.6302836 6.00499382 -2.74277578 3.19990508 0 0 Z " fill="#D7D7D7" transform="translate(533,192)"/>
<path d="M0 0 C0.66 0.33 1.32 0.66 2 1 C0.70700306 3.88437779 -0.65941363 5.87219421 -3 8 C-3.33 7.01 -3.66 6.02 -4 5 C-2.0625 2.3125 -2.0625 2.3125 0 0 Z " fill="#171717" transform="translate(642,29)"/>
<path d="M0 0 C1 3 1 3 0.3125 5.125 C-1 7 -1 7 -5 8 C-3.35 5.36 -1.7 2.72 0 0 Z " fill="#262626" transform="translate(398,858)"/>
<path d="M0 0 C1.6875 1.5625 1.6875 1.5625 3 3 C-3.625 2.25 -3.625 2.25 -7 0 C-3.98968256 -0.93423645 -3.13349732 -1.04449911 0 0 Z " fill="#CFCFCF" transform="translate(351,525)"/>
<path d="M0 0 C1.67542976 0.28604898 3.34385343 0.61781233 5 1 C4.67 1.99 4.34 2.98 4 4 C-0.455 3.01 -0.455 3.01 -5 2 C-3.68 1.67 -2.36 1.34 -1 1 C-0.67 0.67 -0.34 0.34 0 0 Z " fill="#D4D4D4" transform="translate(440,555)"/>
<path d="M0 0 C1.258125 -0.04125 2.51625 -0.0825 3.8125 -0.125 C4.52019531 -0.14820313 5.22789062 -0.17140625 5.95703125 -0.1953125 C8 0 8 0 11 2 C11 2.66 11 3.32 11 4 C7.37 3.01 3.74 2.02 0 1 C0 0.67 0 0.34 0 0 Z " fill="#CACACA" transform="translate(400,544)"/>
<path d="M0 0 C1.98 0.66 3.96 1.32 6 2 C6 2.99 6 3.98 6 5 C4.68 5.33 3.36 5.66 2 6 C1.34 4.02 0.68 2.04 0 0 Z " fill="#E6E6E6" transform="translate(616,448)"/>
<path d="M0 0 C2 3 2 3 2 7 C0.68 7.33 -0.64 7.66 -2 8 C-1.34 5.36 -0.68 2.72 0 0 Z " fill="#D6D6D6" transform="translate(393,772)"/>
<path d="M0 0 C0.66 0.66 1.32 1.32 2 2 C0.68 3.32 -0.64 4.64 -2 6 C-2.33 4.68 -2.66 3.36 -3 2 C-2.01 1.34 -1.02 0.68 0 0 Z " fill="#EAEAEA" transform="translate(513,687)"/>
<path d="M0 0 C0.8125 1.6875 0.8125 1.6875 1 4 C-1.4375 6.75 -1.4375 6.75 -4 9 C-4 5.00095031 -2.27413033 3.19799578 0 0 Z " fill="#2E2E2E" transform="translate(523,676)"/>
<path d="M0 0 C2.31 0.33 4.62 0.66 7 1 C5.515 2.485 5.515 2.485 4 4 C3.01 3.67 2.02 3.34 1 3 C0.67 2.01 0.34 1.02 0 0 Z " fill="#EBEBEB" transform="translate(595,442)"/>
<path d="M0 0 C0.99 0 1.98 0 3 0 C3 0.66 3 1.32 3 2 C2.34 2 1.68 2 1 2 C0.67 2.99 0.34 3.98 0 5 C-2.0625 6.1875 -2.0625 6.1875 -4 7 C-2.79618552 4.50638429 -1.54571278 2.31856917 0 0 Z " fill="#D9D9D9" transform="translate(434,336)"/>
<path d="M0 0 C0.99 0 1.98 0 3 0 C3.33 0.66 3.66 1.32 4 2 C3.0625 4.625 3.0625 4.625 2 7 C1.01 6.67 0.02 6.34 -1 6 C-0.67 4.02 -0.34 2.04 0 0 Z " fill="#E9E9E9" transform="translate(580,214)"/>
<path d="M0 0 C0.99 0.33 1.98 0.66 3 1 C1.35302722 4.29394556 -0.76681408 5.4911799 -4 7 C-2.68 4.69 -1.36 2.38 0 0 Z " fill="#D5D5D5" transform="translate(576,129)"/>
</svg>
